<?xml version="1.0" standalone="no"?>
<!DOCTYPE svg PUBLIC "-//W3C//DTD SVG 20010904//EN"
 "http://www.w3.org/TR/2001/REC-SVG-20010904/DTD/svg10.dtd">
<svg version="1.0" xmlns="http://www.w3.org/2000/svg"
 width="512.000000pt" height="512.000000pt" viewBox="0 0 512.000000 512.000000"
 preserveAspectRatio="xMidYMid meet">
<metadata>
Created by potrace 1.11, written by Peter Selinger 2001-2013
</metadata>
<g transform="translate(0.000000,512.000000) scale(0.100000,-0.100000)"
fill="#000000" stroke="none">
<path d="M999 3928 c-20 -5 -51 -23 -70 -40 -60 -54 -132 -120 -200 -182 -168
-156 -262 -241 -269 -246 -7 -4 -159 -144 -253 -232 -17 -15 -60 -55 -98 -89
-108 -97 -110 -102 -109 -385 1 -235 2 -240 26 -285 26 -47 93 -99 129 -99 11
0 25 -4 31 -8 8 -5 11 -328 11 -1107 0 -1228 -5 -1139 69 -1205 47 -41 96 -51
242 -49 159 2 202 19 258 104 19 29 19 58 21 1139 1 681 6 1112 12 1115 12 8
3519 6 3526 -1 3 -3 7 -502 8 -1109 l2 -1104 22 -41 c12 -22 40 -53 64 -69 40
-29 46 -30 182 -34 87 -2 154 1 178 8 50 15 95 54 121 105 l21 41 1 1103 c0
606 2 1102 5 1103 32 4 57 12 84 25 36 19 44 27 77 74 25 34 25 39 28 274 5
317 16 290 -189 476 -57 52 -133 122 -169 155 -99 92 -143 131 -170 155 -14
12 -47 43 -75 69 -27 26 -106 98 -175 161 -69 63 -134 123 -145 133 -11 10
-33 26 -50 35 -28 16 -153 17 -1570 18 -928 1 -1554 -2 -1576 -8z"/>
<path d="M993 2161 c-5 -3 -8 -235 -8 -516 1 -556 0 -539 59 -603 66 -73 203
-72 275 2 59 61 59 62 60 616 l0 505 -189 1 c-104 0 -193 -2 -197 -5z"/>
<path d="M3741 1661 c1 -548 2 -556 56 -613 40 -43 78 -59 136 -60 57 -1 117
24 153 64 48 54 49 61 49 593 1 275 0 505 -2 511 -3 7 -69 10 -198 10 l-194 0
0 -505z"/>
</g>
</svg>
